<?xml version="1.0" standalone="no"?>
<!DOCTYPE svg PUBLIC "-//W3C//DTD SVG 20010904//EN"
 "http://www.w3.org/TR/2001/REC-SVG-20010904/DTD/svg10.dtd">
<svg version="1.0" xmlns="http://www.w3.org/2000/svg"
 width="2022.000000pt" height="455.000000pt" viewBox="0 0 2022.000000 455.000000"
 preserveAspectRatio="xMidYMid meet">
<metadata>
Created by potrace 1.16, written by Peter Selinger 2001-2019
</metadata>
<g transform="translate(0.000000,455.000000) scale(0.100000,-0.100000)"
fill="#003da5" stroke="none">
<path d="M8849 4326 c-610 -88 -1041 -406 -1173 -868 -49 -169 -55 -359 -19
-538 67 -336 306 -577 737 -745 154 -60 301 -104 666 -197 470 -120 631 -177
765 -273 74 -53 115 -102 152 -182 23 -50 27 -71 27 -148 -1 -121 -26 -185
-105 -270 -96 -102 -235 -165 -448 -200 -155 -26 -429 -17 -566 19 -346 90
-539 299 -571 618 l-7 68 -405 0 -405 0 7 -107 c45 -708 544 -1167 1386 -1275
140 -18 488 -14 645 6 141 19 350 69 458 110 176 67 349 172 472 288 334 312
447 845 269 1272 -64 152 -221 332 -381 437 -185 120 -341 178 -814 299 -690
177 -873 239 -992 332 -107 85 -135 267 -64 422 90 196 391 304 747 268 389
-41 599 -214 638 -527 l7 -60 404 0 404 0 -2 80 c-5 168 -51 348 -128 497
-181 352 -550 581 -1069 664 -138 22 -510 27 -635 10z M12530 4324 c-599 -81
-1058 -409 -1322 -945 -269 -547 -312 -1320 -108 -1941 258 -782 877 -1228
1705 -1228 888 0 1527 505 1755 1387 58 224 74 368 74 678 0 240 -3 300 -22
423 -41 263 -103 465 -207 677 -272 555 -747 887 -1367 954 -132 15 -380 12
-508 -5z m400 -684 c496 -61 809 -449 885 -1095 56 -482 -41 -967 -252 -1263
-216 -303 -585 -438 -974 -357 -273 58 -497 241 -637 521 -126 251 -190 637
-164 987 32 432 160 759 380 969 150 143 290 206 542 242 53 7 139 6 220 -4z
M18807 4259 c-129 -18 -268 -122 -322 -241 -97 -212 -8 -461 203 -565 74 -37
79 -38 181 -38 86 1 117 5 161 23 175 70 279 237 267 428 -15 251 -237 429
-490 393z m200 -57 c112 -42 195 -128 235 -239 29 -83 23 -206 -14 -285 -37
-80 -107 -152 -187 -191 -61 -30 -72 -32 -171 -32 -96 0 -110 3 -165 29 -154
76 -246 251 -216 413 45 246 292 391 518 305z M18700 3841 l0 -251 40 0 40 0
0 215 0 215 75 0 c41 0 85 -5 99 -11 29 -14 51 -59 43 -91 -13 -49 -32 -63
-96 -68 l-60 -5 82 -127 82 -128 52 0 52 0 -65 94 c-35 52 -64 98 -64 103 0 4
13 14 30 21 65 29 92 139 51 206 -37 59 -71 71 -223 74 l-138 4 0 -251z M920
2275 l0 -1955 1455 0 1455 0 0 350 0 350 -1050 0 -1050 0 0 485 0 485 980 0
980 0 0 335 0 335 -977 2 -978 3 -3 433 -2 432 1050 0 1050 0 0 350 0 350
-1455 0 -1455 0 0 -1955z M4185 4218 c-3 -7 -4 -886 -3 -1953 l3 -1940 403 -3
402 -2 0 584 0 583 473 6 c351 4 504 9 596 21 421 55 745 198 976 430 247 249
368 585 352 976 -10 222 -50 387 -138 561 -177 354 -531 598 -1004 694 -235
47 -240 48 -1168 52 -730 4 -888 2 -892 -9z m1761 -703 c207 -31 344 -93 460
-209 120 -120 169 -249 169 -446 0 -201 -49 -327 -174 -450 -87 -85 -174 -133
-311 -173 -138 -40 -237 -47 -682 -47 l-418 0 0 670 0 670 426 0 c332 0 449
-3 530 -15z M14950 2275 l0 -1955 396 0 396 0 -6 1217 c-3 670 -9 1283 -14
1363 -4 80 -7 146 -7 147 1 2 99 -192 218 -430 222 -444 304 -586 1256 -2174
l74 -123 413 0 414 0 0 1955 0 1955 -396 0 -396 0 5 -1182 c3 -651 10 -1264
16 -1363 5 -99 8 -181 7 -182 -1 -1 -101 197 -223 440 -214 426 -242 475 -771
1362 l-549 920 -416 3 -417 2 0 -1955z"/>
</g>
</svg>
