<?xml version="1.0" standalone="no"?>
<!DOCTYPE svg PUBLIC "-//W3C//DTD SVG 20010904//EN"
 "http://www.w3.org/TR/2001/REC-SVG-20010904/DTD/svg10.dtd">
<svg version="1.0" xmlns="http://www.w3.org/2000/svg"
 width="2200.000000pt" height="336.000000pt" viewBox="0 0 2200.000000 336.000000"
 preserveAspectRatio="xMidYMid meet">
<metadata>
Created by potrace 1.16, written by Peter Selinger 2001-2019
</metadata>
<g transform="translate(0.000000,336.000000) scale(0.100000,-0.100000)"
fill="#1428a0" stroke="none">
<path d="M1805 3199 c-44 -5 -123 -20 -176 -33 -186 -46 -294 -103 -404 -211
-141 -138 -205 -313 -205 -562 0 -138 21 -241 69 -338 97 -195 257 -326 706
-575 416 -230 516 -317 545 -469 18 -95 -18 -222 -78 -279 -78 -73 -252 -88
-363 -32 -48 25 -103 89 -117 139 -7 22 -12 106 -12 200 l0 161 -386 0 -386 0
5 -197 c4 -164 8 -211 26 -273 82 -282 280 -457 606 -535 331 -81 755 -51
1010 69 286 136 400 330 422 715 15 271 -46 456 -202 615 -125 128 -254 214
-610 405 -402 216 -487 290 -502 436 -12 116 39 218 130 261 104 48 267 25
334 -47 49 -53 63 -105 63 -236 l0 -123 361 0 362 0 -6 173 c-4 134 -10 189
-27 247 -72 250 -260 401 -587 470 -114 24 -444 35 -578 19z M11184 3189
c-305 -22 -532 -112 -677 -269 -159 -172 -220 -448 -162 -730 27 -129 91 -236
212 -351 126 -120 198 -166 664 -428 267 -150 385 -259 409 -378 20 -97 -8
-221 -63 -282 -43 -47 -114 -71 -208 -71 -133 0 -207 34 -257 120 -26 43 -27
53 -32 223 l-5 178 -378 2 -377 2 0 -172 c0 -185 11 -262 54 -376 98 -261 342
-423 718 -478 46 -7 160 -12 253 -12 562 -1 903 201 992 588 26 115 26 451 -1
545 -52 188 -203 358 -455 514 -50 31 -194 112 -320 180 -325 176 -425 248
-473 340 -42 82 -32 209 23 286 41 56 98 82 189 88 96 5 151 -10 202 -56 64
-57 80 -106 86 -249 l5 -123 348 0 349 0 0 150 c0 247 -43 387 -156 510 -139
149 -349 228 -667 250 -78 5 -146 9 -152 8 -5 0 -60 -4 -121 -9z M19855 3193
c-310 -26 -510 -101 -664 -246 -108 -103 -188 -280 -210 -462 -7 -57 -11 -355
-11 -805 0 -774 4 -840 54 -973 90 -239 290 -394 600 -464 205 -46 517 -46
725 1 342 77 547 258 623 548 20 78 21 112 25 581 l5 497 -506 0 -506 0 0
-210 0 -210 146 0 145 0 -3 -272 -3 -273 -27 -45 c-14 -25 -37 -55 -50 -67
-37 -35 -116 -65 -183 -70 -139 -12 -247 40 -300 142 l-30 59 -3 710 c-3 738
1 833 37 904 50 98 150 147 285 140 104 -5 175 -41 218 -108 41 -64 48 -100
48 -237 l0 -123 363 0 362 0 -2 147 c-5 260 -48 401 -171 551 -65 79 -193 163
-325 212 -156 58 -438 91 -642 73z M4051 3068 c-6 -29 -47 -246 -90 -483 -72
-390 -263 -1421 -377 -2030 -24 -132 -47 -252 -50 -268 l-6 -27 389 2 388 3
196 1295 c107 712 197 1301 200 1308 3 8 35 -195 73 -450 37 -254 88 -598 112
-763 25 -165 80 -544 124 -841 44 -298 80 -544 80 -548 0 -3 174 -6 386 -6
l386 0 -6 27 c-6 28 -107 577 -366 1983 -77 421 -144 783 -148 805 l-8 40
-636 3 -637 2 -10 -52z M6490 2998 c-1 -68 -2 -148 -5 -178 -2 -30 -6 -208 -9
-395 -4 -187 -11 -529 -16 -760 -5 -231 -12 -526 -15 -655 -3 -129 -8 -351
-11 -493 l-7 -257 356 0 c196 0 358 3 360 8 4 6 23 2477 20 2567 -3 81 28 -73
182 -905 91 -492 188 -1016 216 -1165 27 -148 60 -322 72 -385 l23 -115 362
-3 362 -2 5 22 c3 13 57 302 120 643 121 650 190 1020 255 1370 22 116 54 291
72 390 l33 180 6 -305 c4 -168 10 -754 14 -1302 l7 -998 361 0 360 0 -7 213
c-6 206 -20 812 -31 1382 -3 154 -7 339 -10 410 -3 72 -7 288 -11 480 -3 193
-7 356 -9 363 -4 9 -129 12 -584 12 l-581 0 -5 -22 c-2 -13 -29 -178 -60 -368
-30 -190 -91 -568 -135 -840 -44 -272 -97 -598 -117 -725 -19 -126 -39 -233
-42 -237 -5 -6 -72 394 -302 1822 -27 168 -51 320 -54 338 l-6 32 -584 0 -585
0 0 -122z M13018 2084 c-2 -570 0 -1091 4 -1158 29 -505 352 -747 998 -747
529 0 840 163 954 499 51 150 51 138 51 1327 l0 1110 -362 3 -363 2 0 -1098
c0 -1216 3 -1160 -65 -1239 -55 -64 -113 -88 -215 -88 -102 0 -160 24 -215 88
-68 79 -65 23 -65 1239 l0 1098 -360 0 -360 0 -2 -1036z M15815 3108 c-3 -7
-4 -643 -3 -1413 l3 -1400 353 -3 353 -2 -6 272 c-6 328 -23 1284 -30 1748 -2
184 -3 331 0 325 4 -9 68 -220 506 -1660 77 -253 156 -511 175 -572 l35 -113
510 0 509 0 0 1415 0 1415 -356 0 -357 0 7 -252 c3 -139 8 -399 11 -578 8
-522 15 -886 21 -1175 4 -148 4 -268 1 -265 -5 5 -63 202 -248 835 -39 132
-92 314 -119 405 -27 91 -81 275 -120 410 -39 135 -94 322 -121 415 -28 94
-53 178 -55 188 -5 16 -39 17 -535 17 -414 0 -531 -3 -534 -12z"/>
</g>
</svg>
