<svg fill="#003DA5" role="img" viewBox="0 0 24 24" xmlns="http://www.w3.org/2000/svg"><title>Epson</title><path d="M16.037 15.615h1.521V9.469h-1.521v6.146zM7.491 15.615h1.527v-2.07c0-.607.016-1.337.016-1.337h.032s.243.659.394 1.017l1.449 3.39h1.664l1.717-3.39c.14-.339.378-.984.378-.984s.016.715.016 1.346v2.07h1.511V9.481H11.32l-1.302 3.098c-.182.436-.468 1.099-.468 1.099s-.016-.68-.016-1.292V9.481H8.05v6.134h-.559zm8.405 0h3.479V9.481h-1.528v3.716c0 .655-.016 1.437-.016 1.437h-.032s-.259-.712-.405-1.086L16.575 9.481h-1.58l-1.586 3.067c-.153.371-.405 1.086-.405 1.086s-.016-.789-.016-1.453V9.481h-1.527v6.134z"/></svg>
