<svg fill="#1428A0" role="img" viewBox="0 0 24 24" xmlns="http://www.w3.org/2000/svg"><title>Samsung</title><path d="M7.692 10.848c0 .395-.314.711-.704.711H5.294V8.418h1.694c.39 0 .704.316.704.711v1.719zm11.608 4.305c0 .395-.314.711-.704.711h-1.694v-3.141h1.694c.39 0 .704.316.704.711v1.719zM12 0C5.373 0 0 5.373 0 12s5.373 12 12 12 12-5.373 12-12S18.627 0 12 0zm6.016 15.153h-1.521V9.847h1.521v5.306zM8.016 15.153H6.495V9.847h1.521v5.306zm3.984-6.305c0-.395.314-.711.704-.711h1.694v3.141h-1.694c-.39 0-.704-.316-.704-.711V8.848z"/></svg>
